inDegrees=yes
name=IK-offline
DataType=double
version=3
OpenSimVersion=4.1
endheader
time	pelvis_tilt	pelvis_list	pelvis_rotation	pelvis_tx	pelvis_ty	pelvis_tz	hip_flexion_r	hip_adduction_r	hip_rotation_r	knee_angle_r	ankle_angle_r	subtalar_angle_r	mtp_angle_r	hip_flexion_l	hip_adduction_l	hip_rotation_l	knee_angle_l	ankle_angle_l	subtalar_angle_l	mtp_angle_l	lumbar_extension	lumbar_bending	lumbar_rotation	neck_flex	neck_latbend	neck_rot	arm_flex_r	arm_add_r	arm_rot_r	elbow_flex_r	pro_sup_r	wrist_flex_r	wrist_dev_r	arm_flex_l	arm_add_l	arm_rot_l	elbow_flex_l	pro_sup_l	wrist_flex_l	wrist_dev_l
13.7573649	0.2152921514455037	0.6630207443259807	59.56420340757221	0	1	0	-0.4887676292670445	0.08039996416649538	0.3223254713210088	0.3240085181722038	-0.3427248022081928	-0.060527719659378	0	-0.3291056156840464	0.1539782563898632	-0.07221980814700524	0.04737972091089018	-0.2910124824360463	-0.03094348157556804	0	-0.5286491254255116	-0.06004161499902671	-0.2904415653834893	-0.4878685384051585	-0.1739630629847684	1.387896350524296	0.055960997166284	0.2371365792195555	-2.460016307803541	0.2652275691222194	0.01231971365386709	0.1411529552345082	-0.04742398426072306	0.2920158351443616	-0.155927839725773	-0.2669583200324945	0.2522670478338249	0.09216041307734774	-0.2452766657087611	-0.3232157129418786
15.807167	0.2152921514455037	0.6630207443259807	59.56420340757221	0	1	0	-0.4887676292670445	0.08039996416649538	0.3223254713210088	0.3240085181722038	-0.3427248022081928	-0.060527719659378	0	-0.3291056156840464	0.1539782563898632	-0.07221980814700524	0.04737972091089018	-0.2910124824360463	-0.03094348157556804	0	-0.5286491254255116	-0.06004161499902671	-0.2904415653834893	-0.4878685384051585	-0.1739630629847684	1.387896350524296	0.055960997166284	0.2371365792195555	-2.460016307803541	0.2652275691222194	0.01231971365386709	0.1411529552345082	-0.04742398426072306	0.2920158351443616	-0.155927839725773	-0.2669583200324945	0.2522670478338249	0.09216041307734774	-0.2452766657087611	-0.3232157129418786
15.8278824	0.2149294797882814	0.6731736983312031	59.5706662871185	0	1	0	-0.4991893268841845	0.07975051258738376	0.3200349625634409	0.3251701475966156	-0.334050006309459	-0.06214167051697457	0	-0.344443638882327	0.1535590504397667	-0.06508634101794834	0.05461948754674058	-0.2814261493440722	-0.02793925354923193	0	-0.5257371821595099	-0.063897518646827	-0.298294627951094	-0.5446925169866117	-0.1838319606955927	1.400176939164595	0.05841164173086561	0.2347259504018515	-2.461244488053123	0.2742456997494303	0.01235977948673355	0.1357617653313913	-0.03649241866057392	0.2886382914225047	-0.1648137218258653	-0.3337647347049735	0.2492061467491481	0.08213506556893377	-0.2591966093462788	-0.3485743309975766
15.857229	0.2105702399423363	0.6818664637961155	59.56998617393609	0	1	0	-0.5110369054726778	0.06833340470091635	0.3258170870173067	0.3318330650181723	-0.3315349814694266	-0.05847051653600887	0	-0.3518944876526132	0.1572603935358531	-0.06498593898611625	0.06841457455594158	-0.2908732816784622	-0.01924785093935024	0	-0.5379377056928156	-0.07215806380665592	-0.3054625089092731	-0.5799560346751151	-0.1874303456958381	1.403065369521775	0.07430798713776816	0.2278107605732106	-2.456442165271261	0.2729156164246874	0.01233558445283518	0.1446560005292576	-0.04427237064294438	0.3081099897833598	-0.1685710685299619	-0.3907897706198497	0.2392300936092049	0.07980008971984706	-0.2587344721860286	-0.357427542575206
15.8778966	0.2169304076174946	0.6942886906345507	59.57002798704552	0	1	0	-0.5306381801217521	0.07185118637911694	0.3336898284602688	0.3409958220146361	-0.3323441811415933	-0.0638544377469578	0	-0.3647382418702793	0.1571234802338498	-0.05379284671623234	0.07626368894536149	-0.2957295729017272	-0.02568634809544324	0	-0.5399160052473198	-0.09134878782241386	-0.3006389595796762	-0.6424283253741941	-0.1775929315288217	1.402906100994766	0.05556695650168714	0.2450160116740845	-2.471356825608178	0.2827580554607039	0.01222555446777711	0.1369283612720124	-0.05220534878966889	0.3053146132577098	-0.182746706220374	-0.4313366147434521	0.2430032031892377	0.08047991544414136	-0.247223670777144	-0.3520282509719901
15.9071671	0.2198452659964305	0.7090233765435207	59.57219956074658	0	1	0	-0.5528412604974476	0.06847020795743738	0.3327003792720476	0.3554925897414333	-0.3364749059819301	-0.06307615745797263	0	-0.3811848356670494	0.1604534762411078	-0.03984851681576134	0.08936801480025044	-0.3059560562073193	-0.03363937044836866	0	-0.5425814951836254	-0.1037730476872831	-0.3148064349266854	-0.674951980968356	-0.1915957147582182	1.43022714442985	0.03135244621070331	0.2388678544826314	-2.473794492343686	0.2851748152056734	0.01205431752098234	0.1503197999587678	-0.02162806874373229	0.2890511324011659	-0.1787063844251491	-0.4685347996081877	0.2427994481932507	0.08293358763182544	-0.2436589134179901	-0.3313290190922488
15.9278697	0.2190880459996142	0.7131048964897745	59.57556175332883	0	1	0	-0.5510838746311681	0.06812599387934641	0.3290364237857342	0.3522999733941566	-0.33893080622323	-0.05965281246299817	0	-0.3807578719268893	0.1620396012813324	-0.03290321370959171	0.09355740143237937	-0.310181078396171	-0.03581489280149929	0	-0.5394559925626854	-0.1047312833461722	-0.3284101392531219	-0.680426129790848	-0.223228304130573	1.464702940596827	0.0246121996822352	0.2145597084749287	-2.486089265597841	0.2893448767156781	0.01186773534861885	0.1626133826102585	-0.03552847147217335	0.2702989570721235	-0.1543897351487198	-0.4926653232792461	0.236340537066622	0.08106718222233296	-0.2418881671314443	-0.321060093675767
15.957434	0.222833672306525	0.7131151263973586	59.57938934202251	0	1	0	-0.5519457686746864	0.0673752039413336	0.3236335770866483	0.3542934423717299	-0.3380428054725976	-0.05488114609077757	0	-0.3780879596091062	0.1592714163123948	-0.02960955097718947	0.09440858364477946	-0.3198862480337772	-0.03419369130741292	0	-0.5488127101426423	-0.1050564865590818	-0.3254322967922365	-0.6597257291011291	-0.2400388031733946	1.49163030494188	0.0266547487333071	0.1941230737047624	-2.461018084219922	0.2937958404712834	0.01179463297759278	0.1670908467636349	-0.06704751520621238	0.2645966210592495	-0.1487431126077278	-0.4897640035543056	0.2355664648166417	0.07776948295976602	-0.236898271305027	-0.334633843820498
15.9780232	0.2164091271869497	0.7057228718922254	59.58361612907054	0	1	0	-0.5343078645252903	0.06450402560520523	0.3239869702927977	0.3493643830217594	-0.3360078530089897	-0.05386016983766668	0	-0.3559551669513683	0.156738211147053	-0.02756621617667811	0.08217370661306439	-0.3110481204954165	-0.02817400455813764	0	-0.5582898316374145	-0.1190508791391936	-0.3057557919404712	-0.6299015600573118	-0.2399084094141437	1.485743261432484	0.0321565823152452	0.1902888034754785	-2.438817959197681	0.2926746246684141	0.01182528962982226	0.1419498842611604	-0.06016684956658214	0.272134643854014	-0.1562110223379655	-0.4469448835382686	0.2374782227931986	0.07801013448510942	-0.2350925813702953	-0.3423889048067353
16.0072806	0.2126628056634503	0.6936552294534566	59.59159817032759	0	1	0	-0.5223619409207549	0.07204959011946502	0.3203444498529717	0.3480382968827316	-0.3305128015533639	-0.05927997688474825	0	-0.3424947311367785	0.1531732299745633	-0.02229434034759327	0.07726722438051015	-0.310620937096719	-0.02946339784390664	0	-0.5586288571224109	-0.1290819072194043	-0.3065998748045097	-0.6115255698464647	-0.236948262015661	1.504350291995179	0.03940979800622112	0.1925442915521445	-2.44752052904876	0.2931897290989094	0.01176033050659327	0.1259494902772274	-0.04178345310372285	0.2793178167354501	-0.1512061189964519	-0.4211511874165825	0.2369249732999253	0.08145911188046137	-0.231081454517912	-0.3444371749412883
16.0279265	0.205636856277891	0.6987478301691891	59.59020514042108	0	1	0	-0.5220617026186863	0.07187802959460705	0.3289127685487186	0.3474628605397551	-0.3303309567091823	-0.06441448532171991	0	-0.3470350347818555	0.1541903744246196	-0.02122125656667511	0.08538650105389996	-0.3046081134073236	-0.02574227304585182	0	-0.575845156306416	-0.1503365003458955	-0.2939351784103488	-0.5934676847460706	-0.2439397649851301	1.514625419459539	0.06569183672550645	0.1951578943707969	-2.476227010460322	0.2922617450189828	0.01167982836257833	0.1349830291951639	-0.04196583198199479	0.291040868567733	-0.1444634528501471	-0.4049573904890282	0.233524338070725	0.08206076215806432	-0.2311441229848647	-0.3328130878536522
16.0573078	0.2055244627325327	0.7015690011608838	59.59637238845946	0	1	0	-0.5276241368217356	0.07712759288884255	0.3237733327962065	0.3539646363438759	-0.3325161775760938	-0.0668488022490812	0	-0.3562629007210199	0.1540050706166689	-0.01424400656006274	0.09920828066719417	-0.3059367501152717	-0.02003349844167299	0	-0.5881766747048117	-0.1591830397676318	-0.3003728609486376	-0.6021043967005119	-0.2601758915719097	1.536856351357383	0.08759763004098707	0.1980944950683559	-2.490141881660603	0.2955801986270494	0.01164786277906595	0.1467097332361968	-0.05525881878625427	0.2935317524262628	-0.1444508616398592	-0.4033573846187565	0.2296869569470061	0.08144876544647067	-0.2469733134434105	-0.3405772860088845
16.0779599	0.205999664005606	0.7048635411859923	59.60427707030011	0	1	0	-0.5332017539813126	0.08027537577113439	0.324989158429583	0.3574084769026071	-0.3349339741035034	-0.07376270552957533	0	-0.3635909430793733	0.1506906416235784	-0.003590145789532583	0.1051817509911277	-0.3103786094868486	-0.01128046838061005	0	-0.5929266456858453	-0.1631726538670935	-0.3229952749300375	-0.631000295378548	-0.2794583949552318	1.562588909052855	0.09601137181137807	0.1953016529208162	-2.475460063663763	0.2982024426315649	0.01175088116982597	0.1411779338907523	-0.05669252297399038	0.2926698882565728	-0.1384703504437951	-0.4107447662175542	0.2250618767723521	0.07997108850259339	-0.2514305560773958	-0.3532082370685809
16.1070879	0.1976989365451523	0.6964369954243098	59.6050981586599	0	1	0	-0.5342975783191525	0.07748523710484834	0.3266724743035579	0.3736520044642958	-0.3405360072561385	-0.0805314985706989	0	-0.3586259730727202	0.1507344523198777	-0.01412751122878532	0.1199720076798732	-0.317748165125602	0.0007178587205307547	0	-0.5783832131621038	-0.1622693474887054	-0.3397234283080143	-0.6614344348754153	-0.306255208864116	1.588866686429457	0.103543467354642	0.1903105356165698	-2.471659386110114	0.2960958752225832	0.01179642061664603	0.1417628861243715	-0.04928422318287833	0.2811758719761498	-0.1296083890576674	-0.4085384769866023	0.2281851226367566	0.07914086803481457	-0.2284981478869658	-0.3505350578312895
16.1278983	0.2022680530740103	0.7026874651362147	59.61209475159996	0	1	0	-0.5459441032291686	0.08187167688044134	0.3268456088717482	0.3737820441268789	-0.3422014035823001	-0.08895318384329512	0	-0.3670010259530893	0.149880013574662	-0.01173635050543762	0.1278862152165197	-0.3262455333329971	0.00142212149091641	0	-0.5944727842333956	-0.1613956764691654	-0.3696959656394098	-0.6706105708109313	-0.3297138798821589	1.634576741784242	0.1009092604796498	0.2015284649458763	-2.467060264854158	0.3088772391213858	0.01162936388147295	0.1537196120158706	-0.05106057627361334	0.2960770645856878	-0.1164617539677041	-0.4387431706660142	0.2326769874254323	0.07886981099086704	-0.2225740902465651	-0.3472683314847972
